<?xml version="1.0" encoding="UTF-8"?>
<svg id="Calque_2" data-name="Calque 2" xmlns="http://www.w3.org/2000/svg" viewBox="0 0 179.49654 227.1843">
  <defs>
    <style>
      .cls-1 {
        fill: #f6b6c5;
      }

      .cls-2, .cls-3 {
        stroke-width: 2px;
      }

      .cls-2, .cls-3, .cls-4, .cls-5 {
        stroke-miterlimit: 10;
      }

      .cls-2, .cls-4 {
        fill: #ed6f60;
        stroke: #ea6757;
      }

      .cls-6 {
        fill: #f8edc6;
      }

      .cls-3, .cls-5 {
        fill: #1d1d1b;
        stroke: #1d1d1b;
      }

      .cls-4 {
        stroke-width: 2.76814px;
      }
    </style>
  </defs>
  <g id="Calque_2-2" data-name="Calque 2">
    <path class="cls-4" d="m63.77807,118.35901c-6.9387-4.66455-9.84231-10.99929-12.92549-17.96429-3.28709-7.4256-7.25239-16.43054-5.78011-27.95313,1.40238-10.97547,7.06071-18.88023,10.25318-23.34013,6.15854-8.60354,9.15196-8.12309,13.5373-16.4795,2.76905-5.2765,6.1673-11.75201,4.88968-19.39398-.8905-5.32653-3.59279-8.46894-1.94969-10.55663,1.68691-2.14333,6.33563-1.11878,9.35738-.41919,6.92832,1.60399,12.27556,4.70771,18.07625,8.85432,6.51347,4.65613,12.73956,9.10683,19.39897,17.13095,6.5363,7.87579,10.04046,15.03752,11.35761,17.89987,2.28488,4.96544,5.02333,11.02605,5.90445,19.53272.32874,3.17375.85309,8.67216-.66105,15.41041-2.35497,10.48001-8.11936,17.18743-11.77332,21.43918-8.32091,9.68223-17.45252,14.24062-20.54398,15.67422-5.78679,2.68351-14.41563,6.68495-25.40458,5.13652-2.6525-.37376-8.1376-1.20739-13.73663-4.97135Z"/>
    <path class="cls-6" d="m64.31209,44.445c2.65265-4.73043,4.06487-4.90562,6.65824-9.14968,3.81563-6.24432,4.63585-12.21038,4.77979-13.34722.50572-3.99358,1.16859-9.22785-.9339-15.04176-.57291-1.58427-1.22841-2.87208-.6499-3.51888,1.11896-1.25104,5.72325,1.16118,11.70228,4.34262,3.52133,1.87368,6.81581,3.64159,11.09027,6.64561,4.2444,2.98293,7.13289,5.55269,9.99515,8.1157,3.00635,2.69203,6.59586,5.93,10.6991,10.7684,4.47393,5.27556,6.22398,8.52169,7.11354,10.34388.97018,1.98735,1.52896,3.53489,2.03259,4.94299.3533.98784,4.69113,13.26374,2.51216,14.40446-.00011.00006-.59537.31168-7.10899-5.05921h0c.00012.00003-2.04669-2.92321-3.51082-2.69413-1.01197.15835-1.55153,1.79227-2.50658,4.79341-.66227,2.08115-.76174,2.92445-1.13661,4.27693-.83974,3.02956-2.73172,7.42425-3.86402,7.25048-1.04233-.15999-.49989-4.04684-2.03712-10.22762-1.29489-5.20636-3.54595-9.95171-4.27338-9.76524-.5258.13479.23938,2.71946-.13696,6.47982-.64343,6.42907-4.21642,12.22642-5.62527,11.88981-.49161-.11748-.59483-.95199-1.33315-7.57498-.76097-6.82627-.92426-8.38843-1.60807-8.52855-.97289-.19939-1.801,2.72546-5.05923,7.10895-.75513,1.01592-4.89216,6.58178-6.32115,5.89312-.73413-.35382-.32529-2.15196.24459-8.66708.59415-6.79274.38382-7.51443.03744-7.63661-.86045-.30354-2.38346,3.15485-6.48339,8.49172-2.82884,3.68232-5.6403,7.34197-6.91242,6.79259-1.39666-.60312-.71642-6.18396.64892-10.39439,1.5562-4.79911,3.73865-7.00455,2.9645-7.84177-1.01402-1.09658-5.79558,1.5653-8.01213,2.97812-4.13778,2.63738-5.60099,4.91439-6.3004,4.4897-.99354-.60326.74196-5.93717,3.33493-10.5612Z"/>
  </g>
  <g id="Calque_5" data-name="Calque 5">
    <path class="cls-2" d="m89.29736,97.54515c-4.78769-.17165-13.50385-.38139-22.97186,4.31445-4.41888,2.19164-8.50153,6.34985-16.69566,14.60869-8.80836,8.87793-10.09157,12.16074-10.65218,13.95653-.89122,2.85481-.91188,5.0125-2.86957,8.34782-2.2903,3.90198-5.37485,6.25215-6.78261,7.30435-5.21898,3.90082-9.5407,3.60089-9.95651,6.21739-.27153,1.7086,1.28632,3.31978,1.57185,3.60274,2.10501,2.08603,5.37411,1.66486,5.38466,2.04944.01695.61859-8.48003.3035-9.04347,2.34781-.40805,1.4805,3.36977,4.10776,11.47826,8,8.53896,4.09888,15.5168,7.44836,27.1739,10.26089,13.70584,3.30682,24.50729,3.60992,32.21741,3.78259,8.0242.17969,18.1666.34851,31.17392-2.21738,4.97916-.98221,13.47806-2.97662,23.34781-7.30435,8.91019-3.90695,19.44565-9.93829,18.6087-12.52176-.58707-1.8121-6.65912-1.58771-6.62656-2.39011.01764-.43427,1.79086-.36731,3.80048-1.52292.51645-.29697,3.151-1.81195,3.3913-3.52174.43262-3.07834-7.2662-4.15228-15-12-2.68649-2.72607-6.78259-7.69566-6.78262-7.69565-7.18112-11.5126-10.95651-17.56519-10.95651-17.56522-.00009.00011-4.70212-4.79462-7.47827-7.13045-4.33029-3.64346-8.44788-5.0679-14.27328-7.08315-4.4332-1.53362-10.22-3.55894-18.05917-3.84Z"/>
    <path class="cls-6" d="m22.15157,152.20743c.08344-.68657,2.22034-.23642,5.21739-1.65218,2.82774-1.33578,3.14429-2.15234,4.58704-1.97931,1.65187.1981,1.76379,1.55788,4.5434,2.71844.57181.23875,1.40683.44478,3.05353.84708.95045.23221,2.94212.71878,5.03342,1.10944,5.15614.96317,8.72461,1.66853,12.91304,1.4348,4.59543-.25645,7.99734-1.39365,10.91306-2.39131,6.87521-2.35249,7.24747-4.03375,11.91306-5.69565,9.47867-3.37634,18.91434-.34534,21.47824.47826,7.3754,2.36919,7.06485,4.90587,14.6087,6.60869,5.52249,1.24654,10.27057.92133,13.56522.69566,5.34457-.36607,9.74377-1.43718,12.17392-2.43478.15536-.06378,1.75012-1.04298,4.04346-1.8261,1.00641-.34366,1.52118-.51561,2.08698-.52173,1.35297-.01462,1.98828.64604,4.5426,2.18787,2.54041,1.53342,3.15231,1.62862,3.15305,2.11647.00211,1.41461-5.14108,1.7934-5.21738,3.3913-.0574,1.20209,2.7796,2.53424,4.1955,3.1991,1.76367.82816,2.38885.78012,2.50015,1.19223.46994,1.74008-9.77798,5.92145-11.47827,6.60867-6.87708,2.77957-12.0549,4.87231-20.86957,6.95654-5.5538,1.3132-15.30322,3.27368-27.69565,3.82608-6.85059.30536-16.67151.27682-28.30435-1.3913-2.37289-.34027-12.30414-1.82178-24.34782-5.56522-3.62561-1.12692-5.77939-1.95416-10.08696-3.6087-4.44582-1.70764-14.3167-5.65637-13.91304-7.17392.28355-1.06598,5.34647.15891,6.86957-2.47827.07231-.12518.58574-1.04474.34782-2.13043-.64174-2.92839-5.95677-3.44621-5.82608-4.52173Z"/>
    <path class="cls-5" d="m71.29922,140.44722c-1.72482.69757-2.3804,2.59778-2.82562,3.89525-.61685,1.79767-.65891,3.35297-.70773,6.46423-.04907,3.12689.14716,5.14783.3956,7.70624.18951,1.95212.33908,2.81894.69815,3.84241.37756,1.07611,1.31955,3.76123,3.172,4.07086.83853.14014,1.55334-.25833,1.79175-.39545,1.27368-.73254,2.28284-2.42096,2.7515-12.3772.12103-2.57121.19617-5.48224-.63947-8.9839-.64462-2.70129-1.40994-3.98856-2.56644-4.37527-.92612-.30968-1.82129.05235-2.06973.15283Z"/>
    <path class="cls-5" d="m106.93417,140.46829c-1.70059.66812-2.3981,2.88464-2.73914,3.95653-.16992.53407-.59354,2.00461-.56522,6.47826.01981,3.12721.2605,5.14334.56522,7.69565.23248,1.94748.40109,2.81079.78262,3.82611.40115,1.06754,1.40207,3.73126,3.26086,4,.84143.12164,1.5473-.29245,1.78262-.43478,1.48181-.89627,2.1568-2.87659,2.47824-12.4348.05969-1.77522.16193-5.5912-.9819-9.62459-.38824-1.36905-.96075-2.90671-2.32245-3.46237-1.08679-.4435-2.14609-.04509-2.26086,0Z"/>
    <path class="cls-5" d="m87.36895,160.46829c.10413-.19604.66522-.23425,1.78314-.30267.55103-.03372.98663-.04019,1.34729-.04514.51645-.00705.87286-.00018,1.56464.01385,1.39264.02826,1.49924.05914,1.5658.16003.33725.5112-.97342,1.87958-1.13043,2.04349-.6636.69284-1.23914,1.2937-2.02197,1.26334-.5831-.02261-.96835-.38547-1.73889-1.11115-.51773-.48758-1.62866-1.53387-1.36957-2.02176Z"/>
    <path class="cls-2" d="m97.02114,99.38135c-1.33118-3.92477,3.34729-8.66628,9.42505-14.82597,3.84787-3.89972,12.16107-11.69749,28.40103-19.56534,11.07666-5.36635,17.34329-8.31146,20.86957-5.56522,2.38876,1.86037,2.32065,6.13512,2.08694,14.6087-.15717,5.69853-.84024,12.18175-2.78259,21.21738-2.15707,10.03448-4.59125,17.19539-5.69565,20.30435-3.60205,10.14006-6.94281,19.54457-10.43478,19.30435-2.22037-.15274-2.37848-4.05882-6.13043-10.39131-.37903-.63974-6.38318-10.54376-16.69568-16.69565-10.43448-6.22466-17.55368-3.99884-19.04346-8.3913Z"/>
    <path class="cls-2" d="m83.45593,99.12047c1.44519-4.18811-4.69519-9.95741-11.91306-16.73912-6.2196-5.84375-11.84729-9.36453-15.30435-11.47827-7.56764-4.62706-13.27504-6.88254-15.30434-7.65218-8.61502-3.26733-12.92253-4.901-15.65218-3.13043-4.01396,2.60364-3.18205,10.30115-1.73914,23.65218,1.07362,9.93407,2.9225,17.54662,4.17392,22.26088,3.09262,11.65027,7.31557,27.55862,12.04347,27.3913,2.29037-.08105,2.41016-3.85371,7.08696-10.69565,1.23087-1.80069,7.62511-10.90598,17.73914-16.34782,10.59656-5.70146,17.46005-3.17609,18.86957-7.26088Z"/>
    <path d="m113.0646,83.46829c-.51956-.85579,4.7764-5.3974,10.65219-9.08694,3.36127-2.11063,6.29883-3.49403,12.17392-6.26088,2.70538-1.27408,5.65778-2.59485,9.52173-3.82608,4.77768-1.52238,7.19449-2.26573,8.56522-1.39131.72998.46567,1.9675,1.69444,1.34784,14.95653-.21631,4.62979-.35138,7.31503-1,11.13043-.79645,4.68491-2.04974,12.05737-4.17392,12.17392-2.44922.13438-5.5715-9.40427-5.56522-9.39131h0c.00272-.00159-6.19003,4.58626-7.65219,3.47826-.98553-.74683,1.42844-4.66438.34784-5.56522-1.35791-1.132-6.50052,3.94466-8,2.78261-1.3497-1.04597,1.83026-5.92369.34781-7.30434-1.82321-1.698-9.08234,3.96829-10.08694,2.78261-.77209-.91125,3.13449-4.68343,2.23837-5.94247-1.09576-1.53957-8.15399,2.39096-8.71664,1.4642Z"/>
    <path d="m33.37972,107.123c-1.47066.22191-3.96284-8.59865-4.83907-11.69984-1.4304-5.06262-2.32903-9.43036-2.96329-13.36494-.00002-.00009-1.31889-8.18155.2534-16.63246.08406-.45184.23593-1.20801.84253-1.82701.80244-.81886,2.84827-1.77602,10.95653,1.21739,5.33728,1.97041,9.08865,4.29114,12.1739,6.26086,5.16788,3.29935,17.15527,10.86285,16.52176,12-.41803.75035-5.86038-2.1416-7.0535-.55902-1.0592,1.40494,2.20142,5.04839,1.22739,6.03728-.54349.55179-1.92633-.20938-4.06631-.98067-3.80254-1.37048-9.08473-2.44452-9.64436-1.38435-.59335,1.12407,3.95607,4.9624,4.23242,4.71284.28065-.25343-3.36412-5.11308-4.23242-4.71284-.81528.37579,2.31714,7.1718.6593,8.44441-1.35451,1.03976-5.26451-3.27487-6.97644-2.19174-2.15942,1.36627,1.21378,10.03349.12921,10.46292-.83606.33102-2.9529-4.7751-4.58754-4.44136-1.9884.40596-1.24861,8.44957-2.63351,8.65854Z"/>
    <path class="cls-1" d="m111.10995,104.62058c-1.09348-2.46887,2.56204-6.37717,10.17206-13.8914,5.36197-5.29448,9.38553-8.61052,10.78259-9.73914,4.19803-3.39137,6.98663-5.24524,11.13043-8,5.91272-3.93073,8.98373-5.7374,10.08698-4.86957.38162.30019.50601.82114.34781,3.6087-.29852,5.26006-.78256,7.43469-.78259,7.43478-1.39941,6.28691-.67764,6.35652-2.34784,14-.36789,1.68356-1.89993,8.53125-5.21738,17.73912-1.97778,5.48953-6.64209,18.43576-9.13043,17.91306-.63803-.13403-.70923-1.06454-1.43478-2.95653-1.44159-3.75912-3.42059-5.97923-7.04349-10.04347-3.65332-4.09837-5.63162-6.31767-9.13043-8.08696-4.45303-2.25182-6.67706-1.40202-7.43292-3.1086Z"/>
    <path class="cls-1" d="m44.56847,125.61719c-1.76382.5087-6.79443-11.43867-8.85168-16.80106-.61348-1.59908-1.69254-4.47923-2.90546-8.13136-.5298-1.59525-1.28377-3.87386-2.08549-6.69814-.88689-3.12427-1.868-6.58051-2.64908-11.26805-1.37546-8.25467-.48195-10.43353-1.09911-12.68506-.09094-.33179-.53456-1.83212.04347-2.26088.00008-.00006.07484-.04953.16913-.0849.70601-.26486,2.84081.04501,14.09175,8.0849,6.99004,4.99506.35744-.38171,15.30435,12.17392,11.48721,9.64944,14.68823,13.01042,13.82608,14.8913-.53964,1.17731-2.21518.47154-6.65216,2.80435-1.85275.97412-3.23993,1.98012-4.82611,3.13043-2.03271,1.47417-3.43765,2.69772-4.82608,3.91304-2.11281,1.8494-3.6701,3.2236-5.47826,5.34784-2.09753,2.4642-2.69826,3.78268-2.86957,4.1739-.97003,2.21518-.67943,3.26199-1.19179,3.40976Z"/>
  </g>
  <g id="Calque_3" data-name="Calque 3">
    <g>
      <path class="cls-3" d="m1.08504,201.30524l18.24023-26.14111-4.29395-2.99512c-.36719-.25635-.43848-.59961-.30078-.79639.13672-.19678.56348-.25049.87793-.03125l9.73926,6.79541c.26172.18311.3584.60205.22168.79883-.1377.19678-.53613.21094-.79883.02832l-4.3457-3.03223-18.24023,26.14062c-.19238.27588-.51172.28711-.82617.06836-.31348-.22021-.46582-.55957-.27344-.83545Z"/>
      <path class="cls-3" d="m14.77742,209.66999l13.9502-29.24023c.10254-.21631.49512-.29541.84082-.13037.3457.16553.47266.4917.36914.7085l-.53711,1.12598c2.45508-.10449,5.12402.53027,8.0625,1.93262l.90137.4834c.38281.23584.49414.44824.34961.75146-.20215.27588-.49512.29541-.89844.10352l-1.47852-.75879c-1.26758-.60449-4.99414-1.69189-7.49512-1.34229l-12.85449,26.94434c-.10254.21631-.43652.32324-.78223.15771-.3457-.16455-.53125-.51904-.42773-.73584Z"/>
      <path class="cls-3" d="m42.35164,220.70808c-.09375-.12988-.11133-.28662-.06934-.42383l.30176-.9624c-.42383.06885-.84668.13867-1.25488.16162-1.89258.06299-3.88281-.20654-5.95508-.85352l-.79199-.24756c-2.22656-.79639-3.91211-1.8252-4.91992-3.09521-.96094-1.20557-1.31738-2.42285-.93066-3.66016l.05762-.18311c.47559-1.30957,1.6582-2.09717,3.43945-2.4458,1.61621-.24951,3.31641-.12109,5.14453.4502l.30469.09521c2.72852.90186,4.89453,2.53418,6.57324,4.86816,2.55957-7.54834,4.21191-12.4126,4.88477-14.56641,1.00195-3.20703,1.38086-5.70361,1.19727-7.4707-.15527-1.00342-.42871-1.84375-.89453-2.49219-.48047-.60205-1.14062-1.05957-2.04004-1.39111l-.30469-.09473c-1.76758-.55225-3.35938-.59668-4.74316-.02344-1.21777.47461-2.30762,1.3916-3.17773,2.67822-.47266.65723-.89941,1.37891-1.23242,2.23047l-.54688,1.53906-.33984,1.30225c-.08594.27441-.29688.30859-.67773.24072l-.12207-.03809c-.36523-.11377-.50586-.30859-.48047-.60303l.37891-1.6416c.40039-1.28223,1.0459-2.48926,1.81152-3.6582,1.0498-1.43213,2.24316-2.46777,3.6123-2.99561,1.68359-.68066,3.5625-.69775,5.69629-.03174l.4873.15234c1.20508.42676,2.12598,1.1167,2.73242,1.95996.62109.79688.9873,1.76611,1.09863,2.90723.2627,1.94287-.14453,4.53125-1.1748,7.83008-.78711,2.52002-1.99316,6.1665-3.64648,11.03076-1.71484,4.84521-2.7627,7.98779-3.20703,9.40771-.04297.1377-.14648.25635-.29688.30957-.15039.05371-.28711.06152-.46973.00391-.18262-.05664-.35059-.15918-.44434-.28906Zm-1.36035-2.28564c.81738-.04688,1.45215-.1499,1.97852-.3374.27539-.66846.50488-1.40137.77637-2.27197q-.06055-.01904-.0459-.06494l-.20508-.41553-.76074-.9917c-.3877-.47314-.77441-.9458-1.2373-1.39258-.47656-.40039-1.0752-.83887-1.79688-1.31543-.7207-.47607-1.54492-.83398-2.38379-1.14648l-.30469-.09521c-1.52344-.47607-2.96484-.57373-4.30957-.33984-1.40527.21436-2.27148.84912-2.63379,1.79248l-.05664.18311c-.30078.96191-.05664,1.89307.67188,2.77441.88184,1.02979,2.27734,1.91748,4.25977,2.6377l.79297.24756c1.88965.59033,3.62012.8291,5.25488.73584Z"/>
      <path class="cls-3" d="m59.97664,224.34919c-.31543-.04639-.4834-.2168-.56836-.52002l-2.88184-33.21191c.04199-.28516.25195-.3999.6377-.39209l.18945.02783c.31641.04639.49219.16895.51367.46289l2.625,30.55566,12.72656-28.30615c.16797-.2666.37207-.33398.6875-.2876l.18945.02734c.37207.10352.54785.22656.5127.46387l-13.88086,30.90186c-.09766.22803-.30078.29541-.62402.29639l-.12695-.01807Z"/>
      <path class="cls-3" d="m77.6573,224.69001c-.67383-.83984-1.33496-2.01514-1.85742-3.52246-1.10254-3.16016-1.54199-7.01758-1.38184-11.57373.13184-3.74121.82715-7.17529,2.02344-10.30273.63281-1.65869,1.31836-2.979,2.12109-4.00781.93555-1.16748,1.92188-1.94922,3.01758-2.24707.32227-.08496.70703-.11963,1.08984-.10596.5752.02002,1.14551.13574,1.71094.396.81836.36475,1.5.96484,2.04883,1.70508.5498.73877.90918,1.42383,1.0127,2.1001l.04395.57764c-.01855.52783-.22559.95264-.68457,1.27246-.52344.36621-1.36328.62451-2.58105.72607-.83398.11523-1.9209.12549-3.13379.08203l-.95605-.03271c-.89355-.03174-1.72168-.1084-2.5498-.18555-1.19434,3.07959-1.82227,6.41943-1.9502,10.06494-.15918,4.50781.28418,8.26953,1.39062,11.3335.46094,1.40918.99805,2.48438,1.67578,3.22852.61426.69385,1.24023,1.05225,1.81445,1.07227.57422.01953,1.0918-.1543,1.67871-.51807.52246-.31738.98535-.73389,1.45312-1.3418.26562-.2793.53223-.60547.73633-.93457l.41113-.80225c.20508-.37646.21387-.6167.66016-.60156l.31738.05957c.31738.05957.43945.20752.43262.39941l-.07031.18994c-.34375.70752-.81738,1.45996-1.41895,2.20752-.53418.65332-1.12695,1.16064-1.7168,1.57227-.84766.49902-1.68555.70947-2.51562.68066-1.02051-.03613-1.96094-.54883-2.82227-1.4917Zm6.4043-25.90039c.96289-.11084,1.54297-.28223,1.87109-.51025.19629-.1377.26855-.375.28027-.71143l.01172-.33545c-.1084-.53174-.4082-1.11865-.83203-1.75781-.49121-.59375-1.0498-1.04541-1.61426-1.35303-.31348-.15527-.63086-.21436-.88477-.271l-.25488-.00928c-.19141-.00635-.38477.03467-.57812.07617-.83789.21094-1.69141.85352-2.42871,1.83594-.60254.79492-1.14648,1.73682-1.63574,2.92041,1.01953.0835,2.03906.16699,3.12305.20459,1.14941.04053,2.10742.02588,2.94238-.08887Z"/>
      <path class="cls-3" d="m93.4991,225.62604l-1.47461-32.36426c-.01172-.23926.29688-.49365.67969-.51074.38184-.01758.64844.21045.65918.4502l1.47559,32.36475c.01465.33545-.23145.53809-.61426.55615-.38281.01709-.70996-.16016-.72559-.49609Z"/>
      <path class="cls-3" d="m107.69148,224.49323l-4.14746-31.60596-5.19141.68164c-.44238.05762-.72754-.14697-.75879-.38477s.24805-.56494.62793-.61475l11.77441-1.5459c.31641-.0415.6709.20264.70215.44043.03027.23828-.25488.51758-.57129.55908l-5.25391.68945,4.14746,31.60596c.04395.33301-.18359.55664-.56348.60645s-.72168-.09814-.76562-.43164Z"/>
      <path class="cls-3" d="m134.39461,219.81501c-.14648-.06396-.24219-.18945-.27539-.33008l-.23047-.98096c-.3291.27539-.6582.5498-.99805.77832-1.59668,1.01758-3.44629,1.79883-5.55957,2.29736l-.80762.19092c-2.32129.44824-4.2959.42041-5.80957-.15918-1.44141-.54785-2.36719-1.41455-2.66504-2.67578l-.04395-.18701c-.25684-1.36963.35938-2.6499,1.71484-3.85693,1.26465-1.0376,2.79199-1.79297,4.65625-2.23242l.31055-.07324c2.80762-.61279,5.50293-.31152,8.13672.84277-1.64258-7.7998-2.69629-12.82812-3.21387-15.02393-.77148-3.27051-1.71582-5.6123-2.77441-7.03955-.64453-.78516-1.30664-1.36865-2.03809-1.68945-.7207-.27344-1.52148-.33154-2.46484-.15869l-.31055.07373c-1.80273.42529-3.19531,1.19727-4.09277,2.39551-.80762,1.02881-1.27832,2.37256-1.37109,3.92383-.07227.80615-.07227,1.64404.0752,2.54639l.3125,1.60352.37109,1.29346c.06543.28027-.09863.41797-.46094.55225l-.12402.0293c-.37305.08789-.59277-.0083-.7207-.27393l-.50977-1.60645c-.30859-1.30762-.36816-2.6748-.30371-4.0708.17383-1.76709.67285-3.26611,1.58203-4.41748,1.10352-1.44385,2.71191-2.41455,4.88672-2.92725l.49707-.11768c1.25391-.24658,2.39844-.12207,3.34961.29541.93945.36963,1.74902,1.01758,2.42578,1.94336,1.21582,1.5376,2.18359,3.97266,2.97559,7.33691.60645,2.56934,1.4248,6.32178,2.47949,11.3501.99121,5.04395,1.68945,8.28174,2.03125,9.73047.0332.14014.00391.29443-.09863.41797-.10254.12207-.21582.19824-.40234.24219-.18555.04443-.38281.0415-.5293-.02295Zm-2.33398-1.27393c.67871-.45654,1.17285-.86865,1.53027-1.29834-.10254-.71582-.2793-1.46338-.48828-2.35107q-.0625.01465-.07324-.03174l-.3877-.25391-1.16016-.46582c-.57324-.21045-1.14844-.41992-1.77344-.56836-.61426-.10156-1.35352-.17432-2.21582-.21729-.86328-.04297-1.75586.06836-2.63672.22705l-.31055.07373c-1.55371.36621-2.84375,1.01562-3.88086,1.90137-1.09961.90039-1.52344,1.88867-1.35449,2.88428l.04492.18652c.23047.98145.91602,1.6582,1.99023,2.0459,1.28418.43701,2.93652.49072,5.00977.10059l.80762-.18994c1.92676-.45459,3.53809-1.13037,4.89844-2.04297Z"/>
      <path class="cls-3" d="m144.70613,216.15681l-10.55273-30.63525c-.07812-.22656.14551-.55811.50781-.68262.3623-.125.68262.01904.76074.24561l10.55176,30.63525c.10938.31787-.06934.58252-.43164.70752s-.72656.04688-.83594-.27051Z"/>
      <path class="cls-3" d="m156.84773,210.52058c-.97363-.45801-2.08496-1.22363-3.21582-2.34766-2.37988-2.35449-4.46973-5.62646-6.32812-9.78906-1.52539-3.41895-2.40918-6.80811-2.70996-10.14355-.16016-1.76758-.125-3.25488.14355-4.53125.32715-1.45996.86914-2.5957,1.72363-3.34521.25195-.21729.58203-.41797.93164-.57373.52539-.23438,1.08887-.38086,1.71094-.39551.89551-.03174,1.77148.20752,2.58984.63037.81836.42334,1.44141.88086,1.83203,1.44238l.29297.49951c.21484.48193.21582.95459-.05469,1.44336-.31055.55908-.9502,1.16016-1.99902,1.78662-.69922.46973-1.6709.95605-2.77832,1.45117l-.87402.38965c-.81641.36475-1.59375.65918-2.37109.95361.28027,3.29102,1.18359,6.56689,2.66992,9.89746,1.83984,4.11963,3.89062,7.30371,6.23047,9.56982,1.03418,1.0625,1.98828,1.79248,2.92285,2.16357.8584.35352,1.57715.3999,2.10156.16553.52539-.23389.91309-.61816,1.28223-1.20312.32812-.51465.56055-1.09131.71387-1.84326.11621-.3667.21289-.77783.25-1.16211l.01758-.90137c.01758-.42871-.08008-.64795.32812-.83008l.31152-.08594c.31152-.08643.48633-.00732.56445.16797l.02051.20117c.00195.7876-.09277,1.67139-.30469,2.60645-.19336.82178-.50293,1.53809-.85059,2.16699-.54297.82031-1.20312,1.37744-1.95996,1.71582-.93262.4165-2.00391.36914-3.19141-.09961Zm-5.62988-26.07861c.81543-.52148,1.2627-.93115,1.45605-1.28076.11621-.20947.07617-.4541-.06055-.76123l-.1377-.30713c-.33203-.42969-.8584-.8252-1.51953-1.21289-.70117-.31787-1.40234-.47803-2.04395-.50684-.35059-.00098-.66113.08496-.91406.14551l-.2334.10352c-.1748.0791-.33008.20068-.48535.32275-.66016.55762-1.14355,1.50928-1.37402,2.71631-.19238.97852-.26758,2.06396-.18652,3.34131.95312-.37256,1.9043-.74512,2.89551-1.18799,1.04883-.46826,1.9043-.90283,2.60352-1.37256Z"/>
      <path class="cls-3" d="m174.60457,203.12311c-1.36035.83594-2.56445,1.06934-3.8584.79346-.26367-.06348-.55176-.16748-.78711-.30566-.28906-.104-.44336-.23486-.51855-.35742-.1543-.12988-.12988-.08887-.23047-.25244-.125-.20459-.0625-.46826.23926-.70996l.10742-.06689c.32715-.20068.56543-.17773.7168.06787.28516.21924.64844.44629,1.09668.56592.87012.19678,1.83691-.05908,2.81641-.66064l.2168-.1333c1.33496-.87646,2.17578-2.06885,2.57422-3.49561.36719-1.35254.31641-2.89893-.04297-4.70557-.51953-2.55371-1.7002-5.2085-3.43359-8.03076l-.72754-1.18604c-.98438-1.47998-2.06445-2.50635-3.26953-3.00537-1.15039-.53223-2.47266-.7334-3.99219-.64551-.7998.04004-2.1084.22559-3.84961.5625-1.7959.37109-3.05176.52246-3.95508.51367-1.11719.01074-1.95508-.37646-2.38184-1.07129-.17578-.28662-.29688-.60596-.36426-.95947-.21777-1.33057.28418-2.70898,1.58984-4.24316.77832-.92871,1.65723-1.69434,2.58203-2.26221l.27246-.1665c.87012-.53516,1.76074-.91357,2.61816-1.10254.51074-.14453.91309-.22266,1.33887-.25928.45312.00391.7998-.04053.98438.01562.39746.03711.53125.01123.65723.21582.05078.08154.01562.27148-.07129.49414-.05859.14893-.19629.29004-.30566.35693-.1084.06689-.29688.12549-.48145.06982-.52734-.12695-1.24609-.07861-2.0791.15137-.77832.19678-1.50586.4751-2.21387.90918-.87012.53516-1.64062,1.23291-2.38965,2.0874-1.05469,1.21045-1.43945,2.29199-1.26367,3.31055.07227.23828.14258.47607.24316.63965.30176.49072.8252.73291,1.57031.72607.74414-.00732,1.91992-.1665,3.66113-.50391,1.74023-.33691,3.10449-.55518,4.06348-.58057,3.54492-.20557,6.23633,1.12646,8.15332,4.00439l.9834,1.47998c1.70801,2.78174,2.7793,5.50244,3.2998,8.05713.43457,1.92871.42578,3.62354,0,5.125-.46484,1.80615-1.52637,3.24756-3.18848,4.32422l-.38086.2334Z"/>
    </g>
  </g>
</svg>